# Blender v2.90.0 OBJ File: 'group.blend'
# www.blender.org
mtllib store.mtl
o store_Plane.003
v -20.000000 0.000000 20.000000
v 20.000000 0.000000 20.000000
v -20.000000 0.000000 -20.000000
v 20.000000 0.000000 -20.000000
v -20.000000 16.261580 20.000000
v 20.000000 16.261580 20.000000
v -20.000000 16.261580 -20.000000
v 20.000000 16.261580 -20.000000
v -20.000000 15.041466 -20.000000
v 20.000000 15.041466 -20.000000
v 20.000000 15.041466 20.000000
v -20.000000 15.041466 20.000000
v -20.000000 0.469077 -20.000000
v 20.000000 0.469077 20.000000
v 20.000000 0.469077 -20.000000
v -20.000000 0.469077 20.000000
v 20.000000 14.249310 -20.000000
v -20.000000 14.249310 20.000000
v -20.000000 14.249310 -20.000000
v 20.000000 14.249310 20.000000
v -20.000000 0.000000 20.000000
v -20.000000 0.000000 -20.000000
v -20.000000 16.261580 20.000000
v -20.000000 16.261580 -20.000000
v -20.000000 15.041466 -20.000000
v -20.000000 15.041466 20.000000
v -20.000000 0.469077 -20.000000
v -20.000000 0.469077 20.000000
v -20.000000 14.249310 20.000000
v -20.000000 14.249310 -20.000000
v -20.000000 0.000000 -2.148257
v -20.000000 0.000000 2.148257
v -20.000000 16.261580 -2.148257
v -20.000000 16.261580 2.148257
v -20.000000 15.041466 -2.148257
v -20.000000 15.041466 2.148257
v -20.000000 0.469077 -2.148257
v -20.000000 0.469077 2.148257
v -20.000000 14.249310 -2.148257
v -20.000000 14.249310 2.148257
v -20.000000 0.000000 -2.148257
v -20.000000 0.000000 2.148257
v -20.000000 16.261580 -2.148257
v -20.000000 16.261580 2.148257
v -20.000000 15.041466 -2.148257
v -20.000000 15.041466 2.148257
v -20.000000 0.469077 -2.148257
v -20.000000 0.469077 2.148257
v -20.000000 14.249310 -2.148257
v -20.000000 14.249310 2.148257
v -20.000000 0.000000 -2.148257
v -20.000000 0.000000 2.148257
v -20.000000 16.261580 -2.148257
v -20.000000 16.261580 2.148257
v -20.000000 15.041466 -2.148257
v -20.000000 15.041466 2.148257
v -20.000000 0.469077 -2.148257
v -20.000000 0.469077 2.148257
v -20.000000 14.249310 -2.148257
v -20.000000 14.249310 2.148257
v -20.000000 16.261580 -2.148257
v -20.000000 16.261580 2.148257
v -20.000000 16.261580 20.000000
v 20.000000 16.261580 20.000000
v 20.000000 16.261580 -20.000000
v -20.000000 16.261580 -20.000000
v 20.000000 15.041466 -20.000000
v -20.000000 15.041466 20.000000
v -20.000000 15.041466 -20.000000
v 20.000000 15.041466 20.000000
v -20.000000 16.261580 -20.000000
v -20.000000 16.261580 20.000000
v -20.000000 15.041466 20.000000
v -20.000000 15.041466 -20.000000
v -20.000000 15.041466 2.148257
v -20.000000 15.041466 -2.148257
v -20.000000 16.261580 -2.148257
v -20.000000 16.261580 2.148257
v -20.000000 16.261580 20.000000
v 20.000000 16.261580 20.000000
v 20.000000 16.261580 -20.000000
v -20.000000 16.261580 -20.000000
v 20.000000 15.041466 -20.000000
v -20.000000 15.041466 20.000000
v -20.000000 15.041466 -20.000000
v 20.000000 15.041466 20.000000
v -20.000000 16.261580 -20.000000
v -20.000000 16.261580 20.000000
v -20.000000 15.041466 20.000000
v -20.000000 15.041466 -20.000000
v -20.000000 15.041466 2.148257
v -20.000000 15.041466 -2.148257
v -20.000000 16.261580 -2.148257
v -20.000000 16.261580 2.148257
v -20.000000 16.261580 20.000000
v 20.000000 16.261580 20.000000
v 20.000000 16.261580 -20.000000
v -20.000000 16.261580 -20.000000
v 20.000000 15.041466 -20.000000
v -20.000000 15.041466 20.000000
v -20.000000 15.041466 -20.000000
v 20.000000 15.041466 20.000000
v -20.000000 16.261580 -20.000000
v -20.000000 16.261580 20.000000
v -20.000000 15.041466 20.000000
v -20.000000 15.041466 -20.000000
v -20.000000 15.041466 2.148257
v -20.000000 15.041466 -2.148257
v -20.000000 16.261580 20.000000
v 20.000000 16.261580 20.000000
v 20.000000 16.261580 -20.000000
v -20.000000 16.261580 -20.000000
v 20.000000 15.041466 -20.000000
v -20.000000 15.041466 20.000000
v -20.000000 15.041466 -20.000000
v 20.000000 15.041466 20.000000
v -20.000000 16.261580 18.616909
v 20.000000 16.261580 18.616909
v -20.000000 15.041466 18.616909
v 20.000000 15.041466 18.616909
v 20.000000 16.261580 -18.463232
v -20.000000 16.261580 -18.463232
v 20.000000 15.041466 -18.463232
v -20.000000 15.041466 -18.463232
v -18.309555 16.261580 -2.148257
v -18.309555 16.261580 2.148257
v -18.309555 16.261580 -20.000000
v -18.309555 16.261580 20.000000
v -18.309555 15.041466 20.000000
v -18.309555 15.041466 -20.000000
v -18.309555 15.041466 2.148257
v -18.309555 15.041466 -2.148257
v -20.000000 0.000000 18.278467
v 20.000000 0.000000 18.278467
v 20.000000 0.000000 -18.278467
v -20.000000 0.000000 -18.278467
v -20.000000 0.469077 -18.278467
v 20.000000 0.469077 18.278467
v 20.000000 0.469077 -18.278467
v -20.000000 0.469077 18.278467
v -18.278467 0.000000 -2.148257
v -18.278467 0.000000 2.148257
v -18.278467 0.000000 -20.000000
v -18.278467 0.000000 20.000000
v -18.278467 0.469077 -20.000000
v -18.278467 0.469077 20.000000
v -18.278467 0.469077 2.148257
v -18.278467 0.469077 -2.148257
v -10.235909 15.041466 -2.148257
v -10.235909 15.041466 2.148257
v -10.235909 0.469077 -2.148257
v -10.235909 0.469077 2.148257
v -10.235909 14.249310 -2.148257
v -10.235909 14.249310 2.148257
v -8.545463 16.261580 -2.148257
v -8.545463 16.261580 2.148257
v -8.545463 15.041466 -2.148257
v -8.545463 15.041466 2.148257
v -8.514375 0.000000 -2.148257
v -8.514375 0.000000 2.148257
v -8.514375 0.469077 -2.148257
v -8.514375 0.469077 2.148257
v -18.309555 15.041466 -3.482258
v -8.545463 15.041466 -3.482258
v -18.309555 16.261580 -3.482258
v -8.545463 16.261580 -3.482258
v -18.309555 15.041466 3.509121
v -18.309555 16.261580 3.509121
v -8.545463 15.041466 3.509121
v -8.545463 16.261580 3.509121
v -18.278467 0.000000 -2.726403
v -18.278467 0.469077 -2.726403
v -8.514375 0.000000 -2.726403
v -8.514375 0.469077 -2.726403
v -18.278467 0.000000 2.670579
v -18.278467 0.469077 2.670579
v -8.514375 0.000000 2.670579
v -8.514375 0.469077 2.670579
v -20.000000 15.041466 -20.000000
v -20.000000 14.249310 -20.000000
v -20.000000 15.041466 -2.148257
v -20.000000 14.249310 -2.148257
v 20.000000 0.469077 20.000000
v -20.000000 0.469077 20.000000
v -20.000000 14.249310 20.000000
v 20.000000 14.249310 20.000000
v -17.112514 0.469077 20.000000
v -3.779181 0.469077 20.000000
v -17.112514 14.249310 20.000000
v -3.779181 14.249310 20.000000
v -17.112514 0.469077 20.000000
v -3.779181 0.469077 20.000000
v -17.112514 14.249310 20.000000
v -3.779181 14.249310 20.000000
v -16.826939 0.754653 22.389297
v -4.064757 0.754653 22.389297
v -16.826939 13.963736 22.389297
v -4.064757 13.963736 22.389297
v -17.112514 0.469077 22.389297
v -3.779181 0.469077 22.389297
v -17.112514 14.249310 22.389297
v -3.779181 14.249310 22.389297
v -16.826939 0.754653 22.593519
v -4.064757 0.754653 22.593519
v -16.826939 13.963736 22.593519
v -4.064757 13.963736 22.593519
v -16.826939 0.754653 22.593519
v -4.064757 0.754653 22.593519
v -16.826939 13.963736 22.593519
v -4.064757 13.963736 22.593519
v -10.370861 0.754653 22.593519
v -10.520836 0.754653 22.593519
v -10.370861 13.963736 22.593519
v -10.520836 13.963736 22.593519
v -10.449593 0.754653 22.562981
v -10.599567 0.754653 22.562981
v -10.449593 13.963736 22.562981
v -10.599567 13.963736 22.562981
v -20.000000 14.249310 19.413704
v -20.000000 14.249310 2.734550
v -20.000000 0.469077 19.413704
v -20.000000 0.469077 2.734550
v -20.000000 0.469077 20.000000
v -20.000000 14.249310 20.000000
v -20.000000 0.469077 2.148257
v -20.000000 14.249310 2.148257
v -20.970610 14.249310 2.734550
v -20.970610 14.249310 19.413704
v -20.970610 0.469077 2.734550
v -20.970610 0.469077 19.413704
v -20.000000 0.469077 -20.000000
v -20.000000 14.249310 -20.000000
v -20.000000 0.469077 -2.148257
v -20.000000 14.249310 -2.148257
v -20.000000 0.469077 -19.450645
v -20.000000 0.469077 -2.697610
v -20.000000 14.249310 -19.450645
v -20.000000 14.249310 -2.697610
v -21.076046 0.469077 -19.450645
v -21.076046 0.469077 -2.697610
v -21.076046 14.249310 -19.450645
v -21.076046 14.249310 -2.697610
v -20.000000 0.469077 -20.000000
v 20.000000 0.469077 -20.000000
v 20.000000 14.249310 -20.000000
v -20.000000 14.249310 -20.000000
v 19.425545 0.469077 -20.000000
v -19.425545 0.469077 -20.000000
v 19.425545 14.249310 -20.000000
v -19.425545 14.249310 -20.000000
v 19.425545 0.469077 -21.082836
v -19.425545 0.469077 -21.082836
v 19.425545 14.249310 -21.082836
v -19.425545 14.249310 -21.082836
vt 0.000000 0.000000
vt 1.000000 0.000000
vt 1.000000 1.000000
vt 0.000000 1.000000
vt 0.000000 0.000000
vt 0.000000 0.000000
vt 0.000000 0.000000
vt 0.000000 0.000000
vt 0.000000 0.000000
vt 0.000000 0.000000
vt 0.000000 0.000000
vt 0.000000 0.000000
vt 0.000000 0.666667
vt 0.000000 0.333333
vt 0.000000 0.333333
vt 0.000000 0.666667
vt 0.000000 0.000000
vt 0.000000 0.000000
vt 0.000000 0.000000
vt 0.000000 0.000000
vt 1.000000 0.000000
vt 0.000000 0.000000
vt 0.000000 0.000000
vt 1.000000 0.000000
vt 0.000000 1.000000
vt 1.000000 1.000000
vt 1.000000 1.000000
vt 0.000000 1.000000
vt 1.000000 1.000000
vt 0.000000 1.000000
vt 0.000000 1.000000
vt 0.000000 1.000000
vt 0.000000 0.000000
vt 0.000000 0.000000
vt 0.000000 0.000000
vt 0.000000 0.000000
vt 0.000000 1.000000
vt 0.014361 1.000000
vt 0.014361 1.000000
vt 0.000000 1.000000
vt 1.000000 0.000000
vt 0.405520 0.000000
vt 0.405520 0.000000
vt 1.000000 0.000000
vt 0.000000 0.000000
vt 0.000000 0.000000
vt 0.000000 0.666667
vt 0.000000 1.000000
vt 0.000000 1.000000
vt 0.000000 0.666667
vt 0.000000 0.000000
vt 0.000000 0.000000
vt 0.000000 0.666667
vt 0.000000 0.676924
vt 0.000000 0.676924
vt 0.000000 0.666667
vt 0.000000 0.000000
vt 0.000000 0.333333
vt 0.000000 0.333333
vt 0.000000 0.000000
vt 0.000000 0.333333
vt 0.000000 0.333333
vt 0.000000 0.000000
vt 0.000000 0.000000
vt 0.000000 0.000000
vt 1.000000 1.000000
vt 0.000000 1.000000
vt 0.000000 0.333333
vt 0.000000 0.333333
vt 0.000000 0.333333
vt 0.000000 0.333333
vt 0.000000 0.333333
vt 0.000000 0.333333
vt 0.000000 0.333333
vt 0.000000 0.666667
vt 0.000000 0.666667
vt 0.000000 0.666667
vt 0.000000 0.666667
vt 0.000000 0.666667
vt 0.000000 0.666667
vt 0.000000 0.666667
vt 0.000000 0.666667
vt 0.000000 0.666667
vt 0.000000 0.666667
vt 0.000000 0.666667
vt 0.000000 0.666667
vt 0.000000 0.666667
vt 0.000000 0.333333
vt 0.000000 0.333333
vt 0.000000 0.333333
vt 0.000000 0.333333
vt 0.000000 0.333333
vt 0.000000 0.000000
vt 0.000000 0.333333
vt 0.000000 0.333333
vt 0.000000 0.000000
vt 0.000000 0.000000
vt 0.000000 0.000000
vt 0.000000 0.000000
vt 0.000000 0.000000
vt 0.000000 0.000000
vt 0.000000 0.000000
vt 0.000000 0.000000
vt 0.000000 0.000000
vt 0.000000 0.000000
vt 0.000000 0.000000
vt 0.000000 0.000000
vt 0.000000 0.000000
vt 0.000000 0.000000
vt 0.000000 0.000000
vt 0.000000 0.000000
vt 0.000000 0.000000
vt 0.000000 0.000000
vt 0.000000 1.000000
vt 0.000000 1.000000
vt 0.000000 0.666667
vt 0.000000 0.000000
vt 0.000000 0.000000
vt 1.000000 0.000000
vt 1.000000 0.000000
vt 0.000000 0.000000
vt 1.000000 0.000000
vt 0.000000 0.666667
vt 0.000000 0.666667
vt 0.000000 0.333333
vt 0.000000 0.000000
vt 0.000000 0.000000
vt 0.000000 0.000000
vt 0.000000 0.000000
vt 0.000000 0.000000
vt 0.000000 1.000000
vt 0.000000 1.000000
vt 0.000000 0.000000
vt 0.000000 0.000000
vt 1.000000 1.000000
vt 0.000000 1.000000
vt 0.000000 0.000000
vt 0.000000 0.000000
vt 0.000000 0.000000
vt 0.000000 0.000000
vt 0.000000 0.000000
vt 0.000000 0.000000
vt 0.000000 1.000000
vt 1.000000 1.000000
vt 1.000000 1.000000
vt 0.000000 1.000000
vt 0.000000 0.000000
vt 0.000000 0.000000
vt 0.000000 0.000000
vt 0.000000 0.000000
vt 0.000000 0.000000
vt 0.000000 0.000000
vt 0.000000 0.000000
vt 0.000000 0.000000
vt 0.000000 0.000000
vt 0.000000 0.000000
vt 0.000000 0.000000
vt 0.000000 0.000000
vt 0.000000 0.000000
vt 0.000000 0.000000
vt 0.000000 0.000000
vt 1.000000 0.000000
vt 0.000000 0.000000
vt 0.000000 0.000000
vt 1.000000 0.000000
vt 0.000000 0.000000
vt 0.000000 0.000000
vt 0.000000 0.000000
vt 0.000000 0.000000
vt 0.000000 0.000000
vt 1.000000 0.000000
vt 0.000000 0.000000
vt 0.000000 0.000000
vt 0.000000 1.000000
vt 1.000000 1.000000
vt 1.000000 1.000000
vt 0.000000 1.000000
vt 0.000000 0.000000
vt 0.000000 0.000000
vt 0.000000 0.666667
vt 0.000000 1.000000
vt 0.000000 1.000000
vt 0.000000 0.666667
vt 0.000000 0.333333
vt 0.000000 0.333333
vt 0.000000 0.000000
vt 0.000000 0.000000
vt 0.000000 0.666667
vt 0.000000 0.333333
vt 0.000000 0.333333
vt 1.000000 1.000000
vt 0.000000 1.000000
vt 1.000000 0.000000
vt 0.000000 0.000000
vt 0.000000 0.000000
vt 1.000000 0.000000
vt 0.000000 0.666667
vt 0.000000 1.000000
vt 0.000000 0.000000
vt 0.000000 0.000000
vt 0.000000 0.000000
vt 0.000000 0.000000
vt 0.000000 0.000000
vt 0.000000 0.000000
vt 0.000000 0.000000
vt 0.000000 0.000000
vt 0.000000 0.000000
vt 0.000000 0.000000
vt 0.000000 0.000000
vt 0.000000 0.000000
vt 0.000000 0.000000
vt 1.000000 1.000000
vt 0.000000 1.000000
vt 1.000000 0.000000
vt 0.000000 0.000000
vt 0.000000 0.000000
vt 0.000000 0.000000
vt 0.000000 0.000000
vt 0.000000 0.000000
vt 0.000000 0.000000
vt 0.000000 0.333333
vt 0.000000 0.666667
vt 0.000000 0.666667
vt 0.000000 0.666667
vt 0.000000 0.666667
vt 0.000000 0.333333
vt 0.000000 0.333333
vt 0.000000 0.666667
vt 0.000000 0.666667
vt 0.000000 0.333333
vt 0.000000 0.666667
vt 0.000000 0.666667
vt 0.000000 0.000000
vt 0.000000 0.000000
vt 0.000000 0.000000
vt 0.000000 0.000000
vt 0.000000 0.666667
vt 0.000000 0.666667
vt 0.000000 0.666667
vt 0.000000 0.666667
vt 0.000000 0.000000
vt 0.000000 0.000000
vt 0.000000 0.333333
vt 0.000000 0.333333
vt 0.000000 0.333333
vt 0.000000 0.333333
vt 0.000000 0.666667
vt 0.000000 0.666667
vt 0.000000 0.000000
vt 0.000000 0.000000
vt 0.000000 0.333333
vt 0.000000 0.333333
vt 0.000000 0.333333
vt 0.000000 0.333333
vt 0.000000 1.000000
vt 0.000000 0.666667
vt 0.000000 0.000000
vt 0.000000 0.000000
vt 0.000000 0.000000
vt 0.072187 0.000000
vt 0.000000 0.000000
vt 0.000000 0.000000
vt 0.072187 0.000000
vt 0.000000 0.000000
vt 0.000000 0.000000
vt 0.000000 0.000000
vt 0.000000 0.000000
vt 0.072187 0.000000
vt 0.072187 0.000000
vt 0.405520 0.000000
vt 0.405520 0.000000
vt 0.398381 0.000000
vt 0.079327 0.000000
vt 0.079327 0.000000
vt 0.398381 0.000000
vt 0.072187 0.000000
vt 0.072187 0.000000
vt 0.000000 0.000000
vt 0.000000 0.000000
vt 0.000000 0.000000
vt 0.000000 0.000000
vt 0.405520 0.000000
vt 0.405520 0.000000
vt 0.398381 0.000000
vt 0.079327 0.000000
vt 0.079327 0.000000
vt 0.398381 0.000000
vt 0.240728 0.000000
vt 0.079327 0.000000
vt 0.079327 0.000000
vt 0.240728 0.000000
vt 0.398381 0.000000
vt 0.236979 0.000000
vt 0.236979 0.000000
vt 0.398381 0.000000
vt 0.240728 0.000000
vt 0.240728 0.000000
vt 0.236979 0.000000
vt 0.236979 0.000000
vt 0.000000 0.000000
vt 0.000000 0.010947
vt 0.000000 0.010947
vt 0.000000 0.000000
vt 0.000000 0.322386
vt 0.000000 0.333333
vt 0.000000 0.333333
vt 0.000000 0.322386
vt 0.000000 0.000000
vt 0.000000 0.000000
vt 0.000000 0.000000
vt 0.000000 0.000000
vt 0.000000 0.010947
vt 0.000000 0.322386
vt 0.000000 0.322386
vt 0.000000 0.010947
vt 0.000000 0.000000
vt 0.000000 0.000000
vt 0.000000 0.000000
vt 0.000000 0.000000
vt 0.000000 0.989742
vt 0.000000 1.000000
vt 0.000000 1.000000
vt 0.000000 0.989742
vt 0.000000 0.000000
vt 0.000000 0.000000
vt 0.000000 0.000000
vt 0.000000 0.000000
vt 0.000000 0.676924
vt 0.000000 0.989742
vt 0.000000 0.989742
vt 0.000000 0.676924
vt 0.000000 0.000000
vt 0.000000 0.000000
vt 0.000000 0.000000
vt 0.000000 0.000000
vt 0.985639 1.000000
vt 1.000000 1.000000
vt 1.000000 1.000000
vt 0.985639 1.000000
vt 0.985639 1.000000
vt 0.985639 1.000000
vt 0.014361 1.000000
vt 0.014361 1.000000
vt 0.000000 0.000000
vt 0.000000 0.000000
vt 0.000000 0.000000
vt 0.000000 0.000000
vt 0.000000 0.000000
vt 0.000000 0.000000
vt 0.000000 0.000000
vt 0.000000 0.000000
vn 0.0000 1.0000 0.0000
vn 0.0000 0.0000 1.0000
vn 0.0000 0.0000 -1.0000
vn 0.0000 -1.0000 0.0000
vn 1.0000 0.0000 0.0000
vn -1.0000 0.0000 0.0000
vn 0.3616 0.0000 -0.9323
g store_Plane.003_None
usemtl None
s off
f 1/1/1 2/2/1 4/3/1 3/4/1
f 33/5/2 34/6/2 62/7/2 61/8/2
f 7/9/2 9/10/2 69/11/2 66/12/2
f 37/13/1 38/14/1 147/15/1 148/16/1
f 28/17/2 21/18/2 144/19/2 146/20/2
f 20/21/3 18/22/3 12/23/3 11/24/3
f 19/25/2 17/26/2 10/27/2 9/28/2
f 3/4/4 4/3/4 135/29/4 136/30/4
f 27/31/1 37/13/1 148/16/1 145/32/1
f 156/33/1 126/34/1 168/35/1 170/36/1
f 243/37/2 248/38/2 250/39/2 246/40/2
f 183/41/3 188/42/3 190/43/3 186/44/3
f 34/6/2 23/45/2 72/46/2 62/7/2
f 39/47/2 30/48/2 180/49/2 182/50/2
f 21/18/4 32/51/4 142/52/4 144/19/4
f 233/53/5 236/54/5 238/55/5 234/56/5
f 29/57/5 40/58/5 36/59/5 26/60/5
f 36/59/2 40/58/2 154/61/2 150/62/2
f 12/23/2 5/63/2 63/64/2 68/65/2
f 9/28/2 10/27/2 67/66/2 69/67/2
f 34/68/2 36/59/2 46/69/2 44/70/2
f 36/59/2 40/58/2 50/71/2 46/69/2
f 38/14/2 32/72/2 42/73/2 48/74/2
f 40/58/2 38/14/2 48/74/2 50/71/2
f 33/75/2 35/76/2 45/77/2 43/78/2
f 35/76/2 39/47/2 49/79/2 45/77/2
f 37/13/2 31/80/2 41/81/2 47/82/2
f 39/47/2 37/13/2 47/82/2 49/79/2
f 43/78/2 45/77/2 55/83/2 53/84/2
f 45/77/2 49/79/2 59/85/2 55/83/2
f 47/82/2 41/81/2 51/86/2 57/87/2
f 49/79/2 47/82/2 57/87/2 59/85/2
f 44/70/2 46/69/2 56/88/2 54/89/2
f 46/69/2 50/71/2 60/90/2 56/88/2
f 48/74/2 42/73/2 52/91/2 58/92/2
f 50/71/2 48/74/2 58/92/2 60/90/2
f 73/93/2 75/94/2 91/95/2 89/96/2
f 66/12/2 69/11/2 85/97/2 82/98/2
f 74/99/2 71/100/2 87/101/2 90/102/2
f 68/65/2 63/64/2 79/103/2 84/104/2
f 72/46/2 73/93/2 89/96/2 88/105/2
f 5/63/2 6/106/2 64/107/2 63/64/2
f 23/45/2 26/60/2 73/93/2 72/46/2
f 6/106/2 11/108/2 70/109/2 64/107/2
f 8/110/2 7/9/2 66/12/2 65/111/2
f 25/112/2 24/113/2 71/100/2 74/99/2
f 24/113/2 33/5/2 61/8/2 71/100/2
f 35/76/2 25/114/2 74/115/2 76/116/2
f 10/117/2 8/110/2 65/111/2 67/118/2
f 26/60/2 36/59/2 75/94/2 73/93/2
f 11/24/2 12/23/2 68/65/2 70/119/2
f 36/59/2 35/76/2 76/116/2 75/94/2
f 86/120/2 84/104/2 100/121/2 102/122/2
f 91/95/2 92/123/2 108/124/2 107/125/2
f 77/126/2 78/127/2 94/128/2 93/129/2
f 87/101/2 77/126/2 93/129/2 103/130/2
f 92/123/2 90/131/2 106/132/2 108/124/2
f 64/107/2 70/109/2 86/133/2 80/134/2
f 76/116/2 74/115/2 90/131/2 92/123/2
f 71/100/2 61/8/2 77/126/2 87/101/2
f 61/8/2 62/7/2 78/127/2 77/126/2
f 75/94/2 76/116/2 92/123/2 91/95/2
f 70/119/2 68/65/2 84/104/2 86/120/2
f 63/64/2 64/107/2 80/134/2 79/103/2
f 69/67/2 67/66/2 83/135/2 85/136/2
f 65/111/2 66/12/2 82/98/2 81/137/2
f 62/7/2 72/46/2 88/105/2 78/127/2
f 67/118/2 65/111/2 81/137/2 83/138/2
f 98/139/2 101/140/2 115/141/2 112/142/2
f 101/143/2 99/144/2 113/145/2 115/146/2
f 103/130/1 93/129/1 125/147/1 127/148/1
f 104/149/2 105/150/2 129/151/2 128/152/2
f 93/129/1 94/128/1 126/34/1 125/147/1
f 79/103/2 80/134/2 96/153/2 95/154/2
f 85/136/2 83/135/2 99/144/2 101/143/2
f 81/137/2 82/98/2 98/139/2 97/155/2
f 78/127/2 88/105/2 104/149/2 94/128/2
f 83/138/2 81/137/2 97/155/2 99/156/2
f 88/105/2 89/96/2 105/150/2 104/149/2
f 84/104/2 79/103/2 95/154/2 100/121/2
f 90/102/2 87/101/2 103/130/2 106/157/2
f 82/98/2 85/97/2 101/140/2 98/139/2
f 89/96/2 91/95/2 107/125/2 105/150/2
f 80/134/2 86/133/2 102/158/2 96/153/2
f 111/159/1 112/142/1 122/160/1 121/161/1
f 116/162/4 114/163/4 119/164/4 120/165/4
f 99/156/2 97/155/2 111/159/2 113/166/2
f 95/154/2 96/153/2 110/167/2 109/168/2
f 102/122/2 100/121/2 114/163/2 116/162/2
f 96/153/2 102/158/2 116/169/2 110/167/2
f 100/121/2 95/154/2 109/168/2 114/163/2
f 97/155/2 98/139/2 112/142/2 111/159/2
f 120/165/3 119/164/3 117/170/3 118/171/3
f 109/168/1 110/167/1 118/172/1 117/170/1
f 110/167/5 116/169/5 120/173/5 118/172/5
f 114/163/6 109/168/6 117/170/6 119/164/6
f 124/174/2 123/175/2 121/176/2 122/177/2
f 112/142/6 115/141/6 124/178/6 122/160/6
f 113/166/5 111/159/5 121/161/5 123/179/5
f 115/146/4 113/145/4 123/175/4 124/174/4
f 132/180/5 130/181/5 127/182/5 125/183/5
f 129/151/5 131/184/5 126/185/5 128/152/5
f 125/147/1 126/34/1 156/33/1 155/186/1
f 108/124/4 106/132/4 130/181/4 132/180/4
f 106/157/3 103/130/3 127/148/3 130/187/3
f 94/128/1 104/149/1 128/152/1 126/34/1
f 107/125/4 108/124/4 132/180/4 131/184/4
f 105/150/4 107/125/4 131/184/4 129/151/4
f 109/168/2 114/163/2 116/169/2 110/167/2
f 104/149/6 94/128/6 107/125/6 105/150/6
f 93/129/6 103/130/6 106/157/6 108/124/6
f 94/128/6 93/129/6 108/124/6 107/125/6
f 112/142/3 111/159/3 113/166/3 115/146/3
f 131/184/4 132/180/4 157/188/4 158/189/4
f 144/19/5 142/190/5 147/15/5 146/20/5
f 136/30/2 135/29/2 139/191/2 137/192/2
f 134/193/3 133/194/3 140/195/3 138/196/3
f 141/197/5 143/198/5 145/32/5 148/16/5
f 38/14/1 28/17/1 146/20/1 147/15/1
f 22/199/3 27/200/3 145/201/3 143/202/3
f 4/203/5 15/204/5 139/205/5 135/206/5
f 1/1/6 16/207/6 140/195/6 133/194/6
f 13/208/6 3/209/6 136/210/6 137/211/6
f 15/212/1 13/213/1 137/192/1 139/191/1
f 16/207/1 14/214/1 138/196/1 140/195/1
f 2/2/4 1/1/4 133/194/4 134/193/4
f 31/215/4 22/199/4 143/202/4 141/216/4
f 14/217/5 2/218/5 134/219/5 138/220/5
f 32/51/4 31/215/4 141/216/4 142/52/4
f 152/221/5 151/222/5 153/223/5 154/61/5
f 154/61/5 153/223/5 149/224/5 150/62/5
f 158/189/5 157/188/5 155/225/5 156/226/5
f 160/227/5 159/228/5 161/229/5 162/230/5
f 38/14/4 37/13/4 151/222/4 152/221/4
f 39/47/3 35/76/3 149/224/3 153/223/3
f 132/180/6 125/183/6 165/231/6 163/232/6
f 148/16/1 147/15/1 162/230/1 161/229/1
f 40/58/2 38/14/2 152/221/2 154/61/2
f 142/52/4 141/216/4 159/233/4 160/234/4
f 142/52/4 160/234/4 177/235/4 175/236/4
f 37/13/3 39/47/3 153/223/3 151/222/3
f 141/197/6 148/16/6 172/237/6 171/238/6
f 35/76/1 36/59/1 150/62/1 149/224/1
f 163/232/3 165/231/3 166/239/3 164/240/3
f 155/225/5 157/188/5 164/240/5 166/239/5
f 125/147/1 155/186/1 166/241/1 165/242/1
f 157/188/4 132/180/4 163/232/4 164/240/4
f 168/243/2 167/244/2 169/245/2 170/246/2
f 131/184/4 158/189/4 169/245/4 167/244/4
f 126/185/6 131/184/6 167/244/6 168/243/6
f 158/189/5 156/226/5 170/246/5 169/245/5
f 60/90/5 58/92/5 57/87/5 59/85/5
f 171/238/3 172/237/3 174/247/3 173/248/3
f 161/229/5 159/228/5 173/248/5 174/247/5
f 148/16/1 161/229/1 174/247/1 172/237/1
f 159/233/4 141/216/4 171/249/4 173/250/4
f 176/251/2 175/252/2 177/253/2 178/254/2
f 147/15/6 142/190/6 175/252/6 176/251/6
f 160/227/5 162/230/5 178/254/5 177/253/5
f 162/230/1 147/15/1 176/251/1 178/254/1
f 182/50/5 180/49/5 179/255/5 181/256/5
f 25/114/2 35/76/2 181/256/2 179/255/2
f 35/76/2 39/47/2 182/50/2 181/256/2
f 30/257/2 25/112/2 179/258/2 180/259/2
f 187/260/3 184/261/3 185/262/3 189/263/3
f 188/264/1 187/265/1 199/266/1 200/267/1
f 189/263/2 187/260/2 191/268/2 193/269/2
f 190/43/2 188/42/2 192/270/2 194/271/2
f 196/272/1 195/273/1 203/274/1 204/275/1
f 187/260/5 189/263/5 201/276/5 199/277/5
f 189/278/4 190/279/4 202/280/4 201/281/4
f 190/43/6 188/42/6 200/282/6 202/283/6
f 195/273/3 196/272/3 200/282/3 199/277/3
f 198/284/3 197/285/3 201/276/3 202/283/3
f 196/272/3 198/284/3 202/283/3 200/282/3
f 197/285/3 195/273/3 199/277/3 201/276/3
f 195/273/5 197/285/5 205/286/5 203/274/5
f 197/285/4 198/284/4 206/287/4 205/286/4
f 198/284/6 196/272/6 204/275/6 206/287/6
f 211/288/3 207/289/3 209/290/3 213/291/3
f 208/292/3 212/293/3 214/294/3 210/295/3
f 212/293/2 211/288/2 213/291/2 214/294/2
f 213/291/7 211/288/7 215/296/7 217/297/7
f 214/294/7 212/293/7 216/298/7 218/299/7
f 223/300/5 221/301/5 219/302/5 224/303/5
f 222/304/5 225/305/5 226/306/5 220/307/5
f 220/308/4 219/309/4 228/310/4 227/311/4
f 230/312/5 229/313/5 227/314/5 228/315/5
f 222/304/2 220/307/2 227/314/2 229/313/2
f 219/302/3 221/301/3 230/312/3 228/315/3
f 221/316/1 222/317/1 229/318/1 230/319/1
f 235/320/5 231/321/5 232/322/5 237/323/5
f 236/324/1 235/325/1 239/326/1 240/327/1
f 240/328/5 239/329/5 241/330/5 242/331/5
f 238/55/3 236/54/3 240/328/3 242/331/3
f 235/320/2 237/323/2 241/330/2 239/329/2
f 237/332/4 238/333/4 242/334/4 241/335/4
f 247/336/2 244/337/2 245/338/2 249/339/2
f 247/336/6 249/339/6 253/340/6 251/341/6
f 252/342/2 251/341/2 253/340/2 254/343/2
f 249/344/4 250/345/4 254/346/4 253/347/4
f 248/348/1 247/349/1 251/350/1 252/351/1
f 250/39/5 248/38/5 252/342/5 254/343/5
