# Blender v2.91.0 OBJ File: ''
# www.blender.org
mtllib Store1.mtl
o Plane_Plane.003
v 10.000000 0.000000 -12.000000
v 10.000000 0.000000 12.000000
v -10.000000 0.000000 -12.000000
v -6.982589 0.252078 12.000000
v -10.000000 11.066431 -12.000000
v 10.000000 11.066431 -12.000000
v 10.000000 10.814354 -12.000000
v -0.998206 11.066431 12.000000
v -6.982589 11.066431 12.000000
v -6.982589 0.000000 12.000000
v -10.000000 7.728086 -9.796763
v -10.000000 1.057378 -9.796763
v -10.000000 7.728088 -4.221462
v -10.000000 1.057379 -4.221462
v -10.000000 7.728086 3.953151
v -10.000000 1.057379 3.953151
v -10.000000 7.728088 9.528453
v -10.000000 1.057381 9.528453
v -10.000000 0.926846 12.000000
v -10.000000 0.926843 -12.000000
v -10.000000 7.858620 -12.000000
v -10.000000 10.814353 -12.000000
v -10.000000 0.252076 -9.953405
v -10.000000 0.252077 -4.064820
v -10.000000 0.252077 3.796510
v -10.000000 0.252078 9.685095
v -10.000000 10.814353 -9.953405
v -10.000000 10.814353 -4.064820
v -10.000000 10.814353 3.796510
v -10.000000 10.814354 9.685095
v -10.000000 7.858622 -2.125979
v -10.000000 7.858622 2.125979
v -10.000000 0.926845 -2.125979
v -10.000000 0.926844 2.125979
v -10.000000 0.252077 -2.125979
v -10.000000 10.814353 2.125979
v -10.000000 7.858620 -9.953405
v -10.000000 7.858623 -4.064820
v -10.000000 0.926844 -9.953405
v -10.000000 0.926845 -4.064820
v -10.000000 0.926844 3.796510
v -10.000000 7.858622 3.796510
v -10.000000 0.926846 9.685095
v -10.000000 7.858623 9.685095
v -9.950624 7.858620 -9.953405
v -9.950624 7.858623 -4.064820
v -9.950624 0.926844 -9.953405
v -9.950624 0.926845 -4.064820
v -9.950624 0.926844 3.796510
v -9.950624 7.858622 3.796510
v -9.950624 0.926846 9.685095
v -9.950624 7.858623 9.685095
v -9.950624 7.728086 -9.796763
v -9.950624 7.728088 -4.221462
v -9.950624 1.057378 -9.796763
v -9.950624 1.057379 -4.221462
v -9.950624 1.057379 3.953151
v -9.950624 7.728086 3.953151
v -9.950624 1.057381 9.528453
v -9.950624 7.728088 9.528453
v -10.000000 0.000000 2.126521
v -10.000000 11.066431 -2.125811
v -10.000000 11.066431 2.125811
v -10.000000 10.814353 -2.125811
v -10.000000 0.252076 -12.000000
v -7.006795 11.066431 -2.125811
v -7.006795 11.066431 2.125811
v -7.006795 7.858622 -2.125979
v -7.006795 7.858622 2.125979
v -7.006795 0.926845 -2.125979
v -7.006795 0.926844 2.125979
v -7.006795 10.814353 -2.125979
v -7.006795 10.814353 2.125979
v -7.006795 0.252077 -2.126521
v -10.000000 0.000000 12.000000
v -10.000000 11.066431 12.000000
v 10.000000 11.066431 12.000000
v 10.000000 10.814353 12.000000
v -10.000000 10.814354 12.000000
v -6.982589 10.814354 12.000000
v -0.998206 10.814354 12.000000
v -0.998206 0.252077 12.000000
v 10.000000 0.252076 12.000000
v -10.000000 0.252078 12.000000
v -0.998206 7.857681 12.000000
v 10.000000 7.857680 12.000000
v -10.000000 7.857681 12.000000
v -6.982589 7.857681 12.000000
v -9.658367 0.252076 -12.000000
v -6.982589 0.000000 11.483862
v -0.998206 0.000000 11.483862
v 10.000000 0.000000 11.483862
v 10.000000 0.252078 -11.612298
v 10.000000 0.252076 11.483862
v -10.000000 0.252078 11.483862
v -0.998206 0.252077 11.483862
v -6.626977 0.252077 2.432621
v -6.626977 0.252077 -2.432621
v -9.620182 0.000000 -2.432621
v -9.658367 0.252078 12.000000
v -6.626977 0.000000 2.432621
v -10.000000 0.000000 11.483862
v -10.000000 0.252076 -11.612298
v 10.000000 0.000000 -11.612298
v -9.658367 0.000000 12.000000
v -9.620182 0.000000 2.432621
v -9.620182 0.252077 2.432621
v -6.626977 0.000000 -2.432621
v -9.658367 0.000000 -12.000000
v -9.620182 0.252077 -2.432621
v -6.982589 0.252078 11.483862
v -10.000000 0.000000 -11.612298
v 10.000000 0.252078 -12.000000
v -10.000000 0.000000 -2.126521
v -10.000000 0.252077 2.126521
v -7.006795 0.252077 2.126521
v -7.006795 0.000000 -2.126521
v -7.006795 0.000000 2.126521
v -0.998206 0.000000 12.000000
vt 0.000000 1.000000
vt 1.000000 1.000000
vt 1.000000 1.000000
vt 0.000000 1.000000
vt 0.000000 0.000000
vt 0.000000 0.000000
vt 0.000000 0.000000
vt 0.000000 0.000000
vt 0.000000 0.000000
vt 0.000000 0.333333
vt 0.000000 0.333333
vt 0.000000 0.000000
vt 0.000000 0.200000
vt 0.000000 0.400000
vt 0.000000 0.400000
vt 0.000000 0.200000
vt 1.000000 0.000000
vt 0.482581 0.000000
vt 0.482580 0.000000
vt 1.000000 0.000000
vt 0.000000 1.000000
vt 1.000000 1.000000
vt 0.000000 0.533333
vt 0.000000 0.600000
vt 0.000000 0.600000
vt 0.000000 0.533333
vt 0.000000 0.533333
vt 0.000000 0.600000
vt 0.000000 0.794680
vt 0.000000 0.605320
vt 0.000000 0.600000
vt 0.000000 0.800000
vt 0.000000 0.800000
vt 0.000000 0.800000
vt 0.000000 0.000000
vt 0.000000 0.200000
vt 0.000000 0.200000
vt 0.000000 0.800000
vt 0.000000 1.000000
vt 0.000000 0.800000
vt 0.000000 0.400000
vt 0.000000 0.400000
vt 0.000000 0.600000
vt 0.000000 0.533333
vt 0.000000 0.605320
vt 0.000000 0.794680
vt 0.000000 0.800000
vt 0.000000 0.600000
vt 0.000000 1.000000
vt 0.000000 0.000000
vt 0.000000 0.000000
vt 0.000000 0.466667
vt 0.000000 0.466667
vt 0.000000 0.466667
vt 0.000000 0.466667
vt 0.000000 0.000000
vt 0.000000 0.000000
vt 0.000000 0.000000
vt 0.000000 0.000000
vt 0.000000 0.466667
vt 0.000000 0.466667
vt 0.000000 0.200000
vt 0.000000 0.400000
vt 0.000000 0.000000
vt 0.000000 0.000000
vt 0.000000 0.000000
vt 0.000000 0.000000
vt 0.000000 0.200000
vt 0.000000 0.400000
vt 0.000000 0.000000
vt 0.000000 0.000000
vt 0.000000 0.000000
vt 0.000000 0.000000
vt 0.000000 0.394680
vt 0.000000 0.394680
vt 0.000000 0.205320
vt 0.000000 0.205320
vt 0.000000 0.000000
vt 0.000000 0.000000
vt 0.000000 0.000000
vt 0.000000 0.000000
vt 0.000000 0.000000
vt 0.000000 0.000000
vt 0.000000 0.000000
vt 0.000000 0.000000
vt 0.000000 0.666667
vt 0.000000 0.666667
vt 0.000000 0.533333
vt 0.000000 0.533333
vt 0.000000 0.333333
vt 0.000000 0.666667
vt 0.000000 0.666667
vt 0.000000 0.333333
vt 0.000000 0.466667
vt 0.000000 0.466667
vt 0.000000 0.533333
vt 0.000000 0.533333
vt 0.000000 0.000000
vt 0.000000 0.000000
vt 0.000000 0.000000
vt 0.000000 0.000000
vt 0.000000 0.000000
vt 0.000000 0.000000
vt 0.000000 0.000000
vt 0.000000 0.000000
vt 0.149247 0.000000
vt 0.149247 0.000000
vt 0.149247 0.000000
vt 0.149247 0.000000
vt 1.000000 0.000000
vt 0.482580 0.000000
vt 0.482581 0.000000
vt 1.000000 0.000000
vt 0.149247 0.000000
vt 0.000000 0.000000
vt 0.000000 0.000000
vt 0.149247 0.000000
vt 0.000000 0.666667
vt 0.000000 0.666667
vt 0.000000 0.666667
vt 0.000000 0.666667
vt 0.000000 0.333333
vt 0.000000 0.333333
vt 0.000000 1.000000
vt 0.000000 1.000000
vt 0.000000 0.000000
vt 0.000000 0.333333
vt 0.000000 0.333333
vt 0.000000 0.000000
vt 0.000000 1.000000
vt 1.000000 1.000000
vt 1.000000 1.000000
vt 0.000000 1.000000
vt 1.000000 0.000000
vt 0.482580 0.000000
vt 0.482581 0.000000
vt 1.000000 0.000000
vt 0.000000 0.000000
vt 0.000000 0.000000
vt 0.000000 0.000000
vt 0.000000 0.000000
vt 0.000000 0.000000
vt 0.000000 0.000000
vt 0.000000 0.000000
vt 0.000000 0.000000
vt 0.000000 0.000000
vt 0.000000 0.000000
vt 0.000000 0.000000
vt 0.000000 0.000000
vt 0.000000 0.000000
vt 0.000000 0.000000
vt 0.000000 0.000000
vt 0.000000 0.000000
vt 0.000000 0.000000
vt 0.000000 0.000000
vt 0.000000 0.000000
vt 0.000000 0.000000
vt 0.000000 0.000000
vt 0.000000 0.000000
vt 0.000000 0.000000
vt 0.000000 0.000000
vt 0.000000 0.000000
vt 0.000000 0.000000
vt 0.000000 0.000000
vt 0.000000 0.000000
vt 0.000000 0.000000
vt 0.000000 1.000000
vt 1.000000 1.000000
vt 0.000000 0.000000
vt 0.000000 0.000000
vn 0.0000 0.0000 1.0000
vn 0.0000 -1.0000 0.0000
vn 1.0000 0.0000 0.0000
vn 0.0000 0.0000 -1.0000
vn 0.0000 1.0000 -0.0000
vn 0.0000 0.0008 1.0000
vn -0.0001 0.0004 -1.0000
vn 0.0000 0.0007 1.0000
vn -0.0000 0.0003 -1.0000
vn 1.0000 0.0000 -0.0040
vn 1.0000 0.0000 0.0040
vn -1.0000 0.0000 0.0000
usemtl None
s off
f 22/1/1 7/2/1 6/3/1 5/4/1
f 36/5/2 64/6/2 72/7/2 73/8/2
f 79/9/3 36/10/3 63/11/3 76/12/3
f 26/13/3 25/14/3 41/15/3 43/16/3
f 83/17/4 82/18/4 85/19/4 86/20/4
f 65/21/1 113/22/1 7/2/1 22/1/1
f 33/23/3 40/24/3 38/25/3 31/26/3
f 35/27/3 24/28/3 40/24/3 33/23/3
f 55/29/3 56/30/3 48/31/3 47/32/3
f 24/28/3 23/33/3 39/34/3 40/24/3
f 87/35/3 44/36/3 30/37/3 79/9/3
f 37/38/3 21/39/3 22/1/3 27/40/3
f 44/36/3 42/41/3 29/42/3 30/37/3
f 31/26/3 38/25/3 28/43/3 64/44/3
f 38/25/3 37/38/3 27/40/3 28/43/3
f 54/45/3 53/46/3 45/47/3 46/48/3
f 23/33/3 65/21/3 20/49/3 39/34/3
f 39/34/3 20/49/3 21/39/3 37/38/3
f 84/50/3 26/13/3 43/16/3 19/51/3
f 19/51/3 43/16/3 44/36/3 87/35/3
f 42/41/3 32/52/3 36/53/3 29/42/3
f 25/14/3 115/54/3 34/55/3 41/15/3
f 35/56/5 115/57/5 116/58/5 74/59/5
f 41/15/3 34/55/3 32/52/3 42/41/3
f 34/55/6 115/54/6 116/60/6 71/61/6
f 42/41/5 44/36/5 52/62/5 50/63/5
f 14/64/4 13/65/4 54/66/4 56/67/4
f 40/24/2 39/34/2 47/32/2 48/31/2
f 44/36/1 43/16/1 51/68/1 52/62/1
f 43/16/2 41/15/2 49/69/2 51/68/2
f 11/70/1 12/71/1 55/72/1 53/73/1
f 37/38/5 38/25/5 46/48/5 45/47/5
f 12/71/5 14/64/5 56/67/5 55/72/5
f 53/46/3 55/29/3 47/32/3 45/47/3
f 56/30/3 54/45/3 46/48/3 48/31/3
f 58/74/3 57/75/3 49/69/3 50/63/3
f 59/76/3 60/77/3 52/62/3 51/68/3
f 57/75/3 59/76/3 51/68/3 49/69/3
f 60/77/3 58/74/3 50/63/3 52/62/3
f 39/34/4 37/38/4 45/47/4 47/32/4
f 15/78/1 16/79/1 57/80/1 58/81/1
f 18/82/4 17/83/4 60/84/4 59/85/4
f 38/25/1 40/24/1 48/31/1 46/48/1
f 16/79/5 18/82/5 59/85/5 57/80/5
f 17/83/2 15/78/2 58/81/2 60/84/2
f 13/65/2 11/70/2 53/73/2 54/66/2
f 41/15/4 42/41/4 50/63/4 49/69/4
f 64/86/3 22/1/3 5/4/3 62/87/3
f 31/26/4 64/44/4 72/88/4 68/89/4
f 73/90/3 72/91/3 66/92/3 67/93/3
f 69/94/3 68/89/3 72/88/3 73/95/3
f 116/60/3 74/96/3 70/97/3 71/61/3
f 71/61/3 70/97/3 68/89/3 69/94/3
f 35/27/7 33/23/7 70/97/7 74/96/7
f 63/11/8 36/10/8 73/90/8 67/93/8
f 32/52/1 34/55/1 71/61/1 69/94/1
f 64/86/9 62/87/9 66/92/9 72/91/9
f 33/23/4 31/26/4 68/89/4 70/97/4
f 62/98/5 63/99/5 67/100/5 66/101/5
f 61/102/2 114/103/2 117/104/2 118/105/2
f 36/53/1 32/52/1 69/94/1 73/95/1
f 80/106/4 79/9/4 76/12/4 9/107/4
f 4/108/4 84/50/4 87/35/4 88/109/4
f 78/110/4 81/111/4 8/112/4 77/113/4
f 81/111/4 80/106/4 9/107/4 8/112/4
f 85/19/4 88/109/4 80/106/4 81/111/4
f 86/20/4 85/19/4 81/111/4 78/110/4
f 88/109/4 87/35/4 79/9/4 80/106/4
f 90/114/4 102/115/4 95/116/4 111/117/4
f 99/118/4 110/119/4 98/120/4 108/121/4
f 101/122/3 108/121/3 98/120/3 97/123/3
f 99/118/10 109/124/10 89/125/10 110/119/10
f 105/126/11 106/127/11 107/128/11 100/129/11
f 107/128/1 106/127/1 101/122/1 97/123/1
f 112/130/1 104/131/1 93/132/1 103/133/1
f 92/134/4 91/135/4 96/136/4 94/137/4
f 115/57/5 84/50/5 100/129/5 107/138/5
f 116/58/5 115/57/5 107/138/5 97/139/5
f 84/50/5 4/140/5 111/141/5 95/116/5
f 82/142/5 83/143/5 94/144/5 96/145/5
f 84/50/1 75/146/1 105/126/1 100/129/1
f 1/147/3 113/148/3 93/149/3 104/150/3
f 75/146/12 84/50/12 95/116/12 102/115/12
f 3/151/4 65/152/4 89/153/4 109/154/4
f 119/155/12 82/142/12 96/145/12 91/156/12
f 10/157/2 75/146/2 102/115/2 90/158/2
f 35/56/5 74/59/5 98/159/5 110/160/5
f 4/140/3 10/157/3 90/158/3 111/141/3
f 113/22/5 65/21/5 103/133/5 93/132/5
f 61/102/2 118/105/2 101/161/2 106/162/2
f 65/152/5 35/56/5 110/160/5 89/153/5
f 117/104/2 114/103/2 99/163/2 108/164/2
f 74/59/5 116/58/5 97/139/5 98/159/5
f 114/103/2 3/151/2 109/154/2 99/163/2
f 2/165/2 119/155/2 91/156/2 92/166/2
f 3/167/2 1/168/2 104/131/2 112/130/2
f 118/105/2 117/104/2 108/164/2 101/161/2
f 75/146/2 61/102/2 106/162/2 105/126/2
f 83/143/3 2/165/3 92/166/3 94/144/3
f 65/152/12 3/151/12 112/169/12 103/170/12
l 3 75
